<svg width="486" height="80" viewBox="0 0 486 80" fill="none" xmlns="http://www.w3.org/2000/svg">
<mask id="path-1-outside-1_20_6" maskUnits="userSpaceOnUse" x="105" y="26" width="272" height="43" fill="black">
<rect fill="white" x="105" y="26" width="272" height="43"/>
<path d="M125.08 28.92V48.04C125.08 51 124.24 53.28 122.56 54.88C120.907 56.48 118.667 57.28 115.84 57.28C112.88 57.28 110.507 56.44 108.72 54.76C106.933 53.08 106.04 50.6933 106.04 47.6H112.84C112.84 48.7733 113.08 49.6667 113.56 50.28C114.04 50.8667 114.733 51.16 115.64 51.16C116.467 51.16 117.107 50.8933 117.56 50.36C118.013 49.8267 118.24 49.0533 118.24 48.04V28.92H125.08ZM144.765 57.32C142.578 57.32 140.605 56.8533 138.845 55.92C137.112 54.9867 135.738 53.6533 134.725 51.92C133.738 50.1867 133.245 48.16 133.245 45.84C133.245 43.5467 133.752 41.5333 134.765 39.8C135.778 38.04 137.165 36.6933 138.925 35.76C140.685 34.8267 142.658 34.36 144.845 34.36C147.032 34.36 149.005 34.8267 150.765 35.76C152.525 36.6933 153.912 38.04 154.925 39.8C155.938 41.5333 156.445 43.5467 156.445 45.84C156.445 48.1333 155.925 50.16 154.885 51.92C153.872 53.6533 152.472 54.9867 150.685 55.92C148.925 56.8533 146.952 57.32 144.765 57.32ZM144.765 51.4C146.072 51.4 147.178 50.92 148.085 49.96C149.018 49 149.485 47.6267 149.485 45.84C149.485 44.0533 149.032 42.68 148.125 41.72C147.245 40.76 146.152 40.28 144.845 40.28C143.512 40.28 142.405 40.76 141.525 41.72C140.645 42.6533 140.205 44.0267 140.205 45.84C140.205 47.6267 140.632 49 141.485 49.96C142.365 50.92 143.458 51.4 144.765 51.4ZM170.914 37.84C171.554 36.8 172.474 35.96 173.674 35.32C174.874 34.68 176.247 34.36 177.794 34.36C179.634 34.36 181.3 34.8267 182.794 35.76C184.287 36.6933 185.46 38.0267 186.314 39.76C187.194 41.4933 187.634 43.5067 187.634 45.8C187.634 48.0933 187.194 50.12 186.314 51.88C185.46 53.6133 184.287 54.96 182.794 55.92C181.3 56.8533 179.634 57.32 177.794 57.32C176.22 57.32 174.847 57.0133 173.674 56.4C172.5 55.76 171.58 54.92 170.914 53.88V57H164.074V27.4H170.914V37.84ZM180.674 45.8C180.674 44.0933 180.194 42.76 179.234 41.8C178.3 40.8133 177.14 40.32 175.754 40.32C174.394 40.32 173.234 40.8133 172.274 41.8C171.34 42.7867 170.874 44.1333 170.874 45.84C170.874 47.5467 171.34 48.8933 172.274 49.88C173.234 50.8667 174.394 51.36 175.754 51.36C177.114 51.36 178.274 50.8667 179.234 49.88C180.194 48.8667 180.674 47.5067 180.674 45.8ZM232.019 28.92V57H225.179V45.44H214.539V57H207.699V28.92H214.539V39.92H225.179V28.92H232.019ZM251.117 57.32C248.93 57.32 246.957 56.8533 245.197 55.92C243.463 54.9867 242.09 53.6533 241.077 51.92C240.09 50.1867 239.597 48.16 239.597 45.84C239.597 43.5467 240.103 41.5333 241.117 39.8C242.13 38.04 243.517 36.6933 245.277 35.76C247.037 34.8267 249.01 34.36 251.197 34.36C253.383 34.36 255.357 34.8267 257.117 35.76C258.877 36.6933 260.263 38.04 261.277 39.8C262.29 41.5333 262.797 43.5467 262.797 45.84C262.797 48.1333 262.277 50.16 261.237 51.92C260.223 53.6533 258.823 54.9867 257.037 55.92C255.277 56.8533 253.303 57.32 251.117 57.32ZM251.117 51.4C252.423 51.4 253.53 50.92 254.437 49.96C255.37 49 255.837 47.6267 255.837 45.84C255.837 44.0533 255.383 42.68 254.477 41.72C253.597 40.76 252.503 40.28 251.197 40.28C249.863 40.28 248.757 40.76 247.877 41.72C246.997 42.6533 246.557 44.0267 246.557 45.84C246.557 47.6267 246.983 49 247.837 49.96C248.717 50.92 249.81 51.4 251.117 51.4ZM277.265 37.84C277.932 36.8 278.852 35.96 280.025 35.32C281.199 34.68 282.572 34.36 284.145 34.36C285.985 34.36 287.652 34.8267 289.145 35.76C290.639 36.6933 291.812 38.0267 292.665 39.76C293.545 41.4933 293.985 43.5067 293.985 45.8C293.985 48.0933 293.545 50.12 292.665 51.88C291.812 53.6133 290.639 54.96 289.145 55.92C287.652 56.8533 285.985 57.32 284.145 57.32C282.599 57.32 281.225 57 280.025 56.36C278.852 55.72 277.932 54.8933 277.265 53.88V67.64H270.425V34.68H277.265V37.84ZM287.025 45.8C287.025 44.0933 286.545 42.76 285.585 41.8C284.652 40.8133 283.492 40.32 282.105 40.32C280.745 40.32 279.585 40.8133 278.625 41.8C277.692 42.7867 277.225 44.1333 277.225 45.84C277.225 47.5467 277.692 48.8933 278.625 49.88C279.585 50.8667 280.745 51.36 282.105 51.36C283.465 51.36 284.625 50.8667 285.585 49.88C286.545 48.8667 287.025 47.5067 287.025 45.8ZM308.414 37.84C309.08 36.8 310 35.96 311.174 35.32C312.347 34.68 313.72 34.36 315.294 34.36C317.134 34.36 318.8 34.8267 320.294 35.76C321.787 36.6933 322.96 38.0267 323.814 39.76C324.694 41.4933 325.134 43.5067 325.134 45.8C325.134 48.0933 324.694 50.12 323.814 51.88C322.96 53.6133 321.787 54.96 320.294 55.92C318.8 56.8533 317.134 57.32 315.294 57.32C313.747 57.32 312.374 57 311.174 56.36C310 55.72 309.08 54.8933 308.414 53.88V67.64H301.574V34.68H308.414V37.84ZM318.174 45.8C318.174 44.0933 317.694 42.76 316.734 41.8C315.8 40.8133 314.64 40.32 313.254 40.32C311.894 40.32 310.734 40.8133 309.774 41.8C308.84 42.7867 308.374 44.1333 308.374 45.84C308.374 47.5467 308.84 48.8933 309.774 49.88C310.734 50.8667 311.894 51.36 313.254 51.36C314.614 51.36 315.774 50.8667 316.734 49.88C317.694 48.8667 318.174 47.5067 318.174 45.8ZM353.762 45.48C353.762 46.12 353.722 46.7867 353.642 47.48H338.162C338.269 48.8667 338.709 49.9333 339.482 50.68C340.282 51.4 341.256 51.76 342.402 51.76C344.109 51.76 345.296 51.04 345.962 49.6H353.242C352.869 51.0667 352.189 52.3867 351.202 53.56C350.242 54.7333 349.029 55.6533 347.562 56.32C346.096 56.9867 344.456 57.32 342.642 57.32C340.456 57.32 338.509 56.8533 336.802 55.92C335.096 54.9867 333.762 53.6533 332.802 51.92C331.842 50.1867 331.362 48.16 331.362 45.84C331.362 43.52 331.829 41.4933 332.762 39.76C333.722 38.0267 335.056 36.6933 336.762 35.76C338.469 34.8267 340.429 34.36 342.642 34.36C344.802 34.36 346.722 34.8133 348.402 35.72C350.082 36.6267 351.389 37.92 352.322 39.6C353.282 41.28 353.762 43.24 353.762 45.48ZM346.762 43.68C346.762 42.5067 346.362 41.5733 345.562 40.88C344.762 40.1867 343.762 39.84 342.562 39.84C341.416 39.84 340.442 40.1733 339.642 40.84C338.869 41.5067 338.389 42.4533 338.202 43.68H346.762ZM368.211 38.4C369.011 37.1733 370.011 36.2133 371.211 35.52C372.411 34.8 373.744 34.44 375.211 34.44V41.68H373.331C371.624 41.68 370.344 42.0533 369.491 42.8C368.637 43.52 368.211 44.8 368.211 46.64V57H361.371V34.68H368.211V38.4Z"/>
</mask>
<path d="M125.08 28.92V48.04C125.08 51 124.24 53.28 122.56 54.88C120.907 56.48 118.667 57.28 115.84 57.28C112.88 57.28 110.507 56.44 108.72 54.76C106.933 53.08 106.04 50.6933 106.04 47.6H112.84C112.84 48.7733 113.08 49.6667 113.56 50.28C114.04 50.8667 114.733 51.16 115.64 51.16C116.467 51.16 117.107 50.8933 117.56 50.36C118.013 49.8267 118.24 49.0533 118.24 48.04V28.92H125.08ZM144.765 57.32C142.578 57.32 140.605 56.8533 138.845 55.92C137.112 54.9867 135.738 53.6533 134.725 51.92C133.738 50.1867 133.245 48.16 133.245 45.84C133.245 43.5467 133.752 41.5333 134.765 39.8C135.778 38.04 137.165 36.6933 138.925 35.76C140.685 34.8267 142.658 34.36 144.845 34.36C147.032 34.36 149.005 34.8267 150.765 35.76C152.525 36.6933 153.912 38.04 154.925 39.8C155.938 41.5333 156.445 43.5467 156.445 45.84C156.445 48.1333 155.925 50.16 154.885 51.92C153.872 53.6533 152.472 54.9867 150.685 55.92C148.925 56.8533 146.952 57.32 144.765 57.32ZM144.765 51.4C146.072 51.4 147.178 50.92 148.085 49.96C149.018 49 149.485 47.6267 149.485 45.84C149.485 44.0533 149.032 42.68 148.125 41.72C147.245 40.76 146.152 40.28 144.845 40.28C143.512 40.28 142.405 40.76 141.525 41.72C140.645 42.6533 140.205 44.0267 140.205 45.84C140.205 47.6267 140.632 49 141.485 49.96C142.365 50.92 143.458 51.4 144.765 51.4ZM170.914 37.84C171.554 36.8 172.474 35.96 173.674 35.32C174.874 34.68 176.247 34.36 177.794 34.36C179.634 34.36 181.3 34.8267 182.794 35.76C184.287 36.6933 185.46 38.0267 186.314 39.76C187.194 41.4933 187.634 43.5067 187.634 45.8C187.634 48.0933 187.194 50.12 186.314 51.88C185.46 53.6133 184.287 54.96 182.794 55.92C181.3 56.8533 179.634 57.32 177.794 57.32C176.22 57.32 174.847 57.0133 173.674 56.4C172.5 55.76 171.58 54.92 170.914 53.88V57H164.074V27.4H170.914V37.84ZM180.674 45.8C180.674 44.0933 180.194 42.76 179.234 41.8C178.3 40.8133 177.14 40.32 175.754 40.32C174.394 40.32 173.234 40.8133 172.274 41.8C171.34 42.7867 170.874 44.1333 170.874 45.84C170.874 47.5467 171.34 48.8933 172.274 49.88C173.234 50.8667 174.394 51.36 175.754 51.36C177.114 51.36 178.274 50.8667 179.234 49.88C180.194 48.8667 180.674 47.5067 180.674 45.8ZM232.019 28.92V57H225.179V45.44H214.539V57H207.699V28.92H214.539V39.92H225.179V28.92H232.019ZM251.117 57.32C248.93 57.32 246.957 56.8533 245.197 55.92C243.463 54.9867 242.09 53.6533 241.077 51.92C240.09 50.1867 239.597 48.16 239.597 45.84C239.597 43.5467 240.103 41.5333 241.117 39.8C242.13 38.04 243.517 36.6933 245.277 35.76C247.037 34.8267 249.01 34.36 251.197 34.36C253.383 34.36 255.357 34.8267 257.117 35.76C258.877 36.6933 260.263 38.04 261.277 39.8C262.29 41.5333 262.797 43.5467 262.797 45.84C262.797 48.1333 262.277 50.16 261.237 51.92C260.223 53.6533 258.823 54.9867 257.037 55.92C255.277 56.8533 253.303 57.32 251.117 57.32ZM251.117 51.4C252.423 51.4 253.53 50.92 254.437 49.96C255.37 49 255.837 47.6267 255.837 45.84C255.837 44.0533 255.383 42.68 254.477 41.72C253.597 40.76 252.503 40.28 251.197 40.28C249.863 40.28 248.757 40.76 247.877 41.72C246.997 42.6533 246.557 44.0267 246.557 45.84C246.557 47.6267 246.983 49 247.837 49.96C248.717 50.92 249.81 51.4 251.117 51.4ZM277.265 37.84C277.932 36.8 278.852 35.96 280.025 35.32C281.199 34.68 282.572 34.36 284.145 34.36C285.985 34.36 287.652 34.8267 289.145 35.76C290.639 36.6933 291.812 38.0267 292.665 39.76C293.545 41.4933 293.985 43.5067 293.985 45.8C293.985 48.0933 293.545 50.12 292.665 51.88C291.812 53.6133 290.639 54.96 289.145 55.92C287.652 56.8533 285.985 57.32 284.145 57.32C282.599 57.32 281.225 57 280.025 56.36C278.852 55.72 277.932 54.8933 277.265 53.88V67.64H270.425V34.68H277.265V37.84ZM287.025 45.8C287.025 44.0933 286.545 42.76 285.585 41.8C284.652 40.8133 283.492 40.32 282.105 40.32C280.745 40.32 279.585 40.8133 278.625 41.8C277.692 42.7867 277.225 44.1333 277.225 45.84C277.225 47.5467 277.692 48.8933 278.625 49.88C279.585 50.8667 280.745 51.36 282.105 51.36C283.465 51.36 284.625 50.8667 285.585 49.88C286.545 48.8667 287.025 47.5067 287.025 45.8ZM308.414 37.84C309.08 36.8 310 35.96 311.174 35.32C312.347 34.68 313.72 34.36 315.294 34.36C317.134 34.36 318.8 34.8267 320.294 35.76C321.787 36.6933 322.96 38.0267 323.814 39.76C324.694 41.4933 325.134 43.5067 325.134 45.8C325.134 48.0933 324.694 50.12 323.814 51.88C322.96 53.6133 321.787 54.96 320.294 55.92C318.8 56.8533 317.134 57.32 315.294 57.32C313.747 57.32 312.374 57 311.174 56.36C310 55.72 309.08 54.8933 308.414 53.88V67.64H301.574V34.68H308.414V37.84ZM318.174 45.8C318.174 44.0933 317.694 42.76 316.734 41.8C315.8 40.8133 314.64 40.32 313.254 40.32C311.894 40.32 310.734 40.8133 309.774 41.8C308.84 42.7867 308.374 44.1333 308.374 45.84C308.374 47.5467 308.84 48.8933 309.774 49.88C310.734 50.8667 311.894 51.36 313.254 51.36C314.614 51.36 315.774 50.8667 316.734 49.88C317.694 48.8667 318.174 47.5067 318.174 45.8ZM353.762 45.48C353.762 46.12 353.722 46.7867 353.642 47.48H338.162C338.269 48.8667 338.709 49.9333 339.482 50.68C340.282 51.4 341.256 51.76 342.402 51.76C344.109 51.76 345.296 51.04 345.962 49.6H353.242C352.869 51.0667 352.189 52.3867 351.202 53.56C350.242 54.7333 349.029 55.6533 347.562 56.32C346.096 56.9867 344.456 57.32 342.642 57.32C340.456 57.32 338.509 56.8533 336.802 55.92C335.096 54.9867 333.762 53.6533 332.802 51.92C331.842 50.1867 331.362 48.16 331.362 45.84C331.362 43.52 331.829 41.4933 332.762 39.76C333.722 38.0267 335.056 36.6933 336.762 35.76C338.469 34.8267 340.429 34.36 342.642 34.36C344.802 34.36 346.722 34.8133 348.402 35.72C350.082 36.6267 351.389 37.92 352.322 39.6C353.282 41.28 353.762 43.24 353.762 45.48ZM346.762 43.68C346.762 42.5067 346.362 41.5733 345.562 40.88C344.762 40.1867 343.762 39.84 342.562 39.84C341.416 39.84 340.442 40.1733 339.642 40.84C338.869 41.5067 338.389 42.4533 338.202 43.68H346.762ZM368.211 38.4C369.011 37.1733 370.011 36.2133 371.211 35.52C372.411 34.8 373.744 34.44 375.211 34.44V41.68H373.331C371.624 41.68 370.344 42.0533 369.491 42.8C368.637 43.52 368.211 44.8 368.211 46.64V57H361.371V34.68H368.211V38.4Z" fill="#00BFA6"/>
<path d="M125.08 28.92H126.08V27.92H125.08V28.92ZM122.56 54.88L121.87 54.1558L121.865 54.1614L122.56 54.88ZM108.72 54.76L108.035 55.4885L108.035 55.4885L108.72 54.76ZM106.04 47.6V46.6H105.04V47.6H106.04ZM112.84 47.6H113.84V46.6H112.84V47.6ZM113.56 50.28L112.772 50.8963L112.779 50.9048L112.786 50.9132L113.56 50.28ZM117.56 50.36L116.798 49.7124L116.798 49.7124L117.56 50.36ZM118.24 28.92V27.92H117.24V28.92H118.24ZM124.08 28.92V48.04H126.08V28.92H124.08ZM124.08 48.04C124.08 50.8061 123.301 52.7934 121.87 54.1559L123.25 55.6041C125.179 53.7666 126.08 51.1939 126.08 48.04H124.08ZM121.865 54.1614C120.438 55.5416 118.47 56.28 115.84 56.28V58.28C118.864 58.28 121.375 57.4184 123.255 55.5986L121.865 54.1614ZM115.84 56.28C113.079 56.28 110.969 55.5023 109.405 54.0315L108.035 55.4885C110.044 57.3777 112.681 58.28 115.84 58.28V56.28ZM109.405 54.0315C107.869 52.5873 107.04 50.4941 107.04 47.6H105.04C105.04 50.8926 105.998 53.5727 108.035 55.4885L109.405 54.0315ZM106.04 48.6H112.84V46.6H106.04V48.6ZM111.84 47.6C111.84 48.8888 112.1 50.0376 112.772 50.8963L114.348 49.6637C114.06 49.2957 113.84 48.6579 113.84 47.6H111.84ZM112.786 50.9132C113.494 51.7782 114.499 52.16 115.64 52.16V50.16C114.968 50.16 114.586 49.9552 114.334 49.6468L112.786 50.9132ZM115.64 52.16C116.701 52.16 117.644 51.8057 118.322 51.0076L116.798 49.7124C116.57 49.981 116.232 50.16 115.64 50.16V52.16ZM118.322 51.0076C118.985 50.2275 119.24 49.1866 119.24 48.04H117.24C117.24 48.92 117.042 49.4258 116.798 49.7124L118.322 51.0076ZM119.24 48.04V28.92H117.24V48.04H119.24ZM118.24 29.92H125.08V27.92H118.24V29.92ZM138.845 55.92L138.371 56.8005L138.376 56.8035L138.845 55.92ZM134.725 51.92L133.856 52.4147L133.862 52.4247L134.725 51.92ZM134.765 39.8L135.628 40.3047L135.632 40.299L134.765 39.8ZM138.925 35.76L139.394 36.6435L139.394 36.6435L138.925 35.76ZM150.765 35.76L150.296 36.6435L150.296 36.6435L150.765 35.76ZM154.925 39.8L154.058 40.299L154.062 40.3047L154.925 39.8ZM154.885 51.92L154.024 51.4113L154.022 51.4153L154.885 51.92ZM150.685 55.92L150.222 55.0336L150.216 55.0365L150.685 55.92ZM148.085 49.96L147.368 49.2629L147.363 49.2681L147.358 49.2734L148.085 49.96ZM148.125 41.72L147.388 42.3957L147.393 42.4012L147.398 42.4066L148.125 41.72ZM141.525 41.72L142.253 42.4061L142.262 42.3957L141.525 41.72ZM141.485 49.96L140.738 50.6244L140.743 50.6301L140.748 50.6357L141.485 49.96ZM144.765 56.32C142.725 56.32 140.915 55.8861 139.314 55.0365L138.376 56.8035C140.295 57.8206 142.431 58.32 144.765 58.32V56.32ZM139.319 55.0395C137.751 54.1951 136.511 52.9933 135.588 51.4153L133.862 52.4247C134.966 54.3133 136.472 55.7782 138.371 56.8005L139.319 55.0395ZM135.594 51.4253C134.706 49.8657 134.245 48.0151 134.245 45.84H132.245C132.245 48.3049 132.77 50.5076 133.856 52.4147L135.594 51.4253ZM134.245 45.84C134.245 43.6984 134.717 41.8642 135.628 40.3047L133.902 39.2953C132.787 41.2025 132.245 43.3949 132.245 45.84H134.245ZM135.632 40.299C136.553 38.6987 137.803 37.4868 139.394 36.6435L138.456 34.8765C136.527 35.8998 135.004 37.3813 133.898 39.301L135.632 40.299ZM139.394 36.6435C140.995 35.7939 142.805 35.36 144.845 35.36V33.36C142.511 33.36 140.375 33.8594 138.456 34.8765L139.394 36.6435ZM144.845 35.36C146.885 35.36 148.695 35.7939 150.296 36.6435L151.234 34.8765C149.315 33.8594 147.179 33.36 144.845 33.36V35.36ZM150.296 36.6435C151.887 37.4868 153.137 38.6987 154.058 40.299L155.792 39.301C154.686 37.3813 153.163 35.8998 151.234 34.8765L150.296 36.6435ZM154.062 40.3047C154.973 41.8642 155.445 43.6984 155.445 45.84H157.445C157.445 43.3949 156.903 41.2025 155.788 39.2953L154.062 40.3047ZM155.445 45.84C155.445 47.9767 154.962 49.8235 154.024 51.4113L155.746 52.4287C156.888 50.4965 157.445 48.29 157.445 45.84H155.445ZM154.022 51.4153C153.104 52.9856 151.843 54.187 150.222 55.0337L151.148 56.8063C153.101 55.7863 154.64 54.321 155.748 52.4247L154.022 51.4153ZM150.216 55.0365C148.615 55.8861 146.805 56.32 144.765 56.32V58.32C147.099 58.32 149.235 57.8206 151.154 56.8035L150.216 55.0365ZM144.765 52.4C146.35 52.4 147.719 51.8042 148.812 50.6466L147.358 49.2734C146.638 50.0358 145.793 50.4 144.765 50.4V52.4ZM148.802 50.6571C149.971 49.4548 150.485 47.7975 150.485 45.84H148.485C148.485 47.4559 148.066 48.5452 147.368 49.2629L148.802 50.6571ZM150.485 45.84C150.485 43.8898 149.988 42.2365 148.852 41.0334L147.398 42.4066C148.075 43.1235 148.485 44.2168 148.485 45.84H150.485ZM148.862 41.0443C147.792 39.8769 146.431 39.28 144.845 39.28V41.28C145.872 41.28 146.698 41.6431 147.388 42.3957L148.862 41.0443ZM144.845 39.28C143.239 39.28 141.862 39.8721 140.788 41.0443L142.262 42.3957C142.948 41.6479 143.784 41.28 144.845 41.28V39.28ZM140.797 41.034C139.681 42.2177 139.205 43.8774 139.205 45.84H141.205C141.205 44.176 141.609 43.089 142.253 42.406L140.797 41.034ZM139.205 45.84C139.205 47.7758 139.668 49.4206 140.738 50.6244L142.232 49.2956C141.596 48.5794 141.205 47.4775 141.205 45.84H139.205ZM140.748 50.6357C141.818 51.8031 143.179 52.4 144.765 52.4V50.4C143.738 50.4 142.912 50.0369 142.222 49.2843L140.748 50.6357ZM170.914 37.84H169.914V41.373L171.765 38.3641L170.914 37.84ZM173.674 35.32L173.203 34.4376L173.203 34.4376L173.674 35.32ZM182.794 35.76L182.264 36.608L182.264 36.608L182.794 35.76ZM186.314 39.76L185.417 40.2017L185.422 40.2127L186.314 39.76ZM186.314 51.88L185.419 51.4328L185.417 51.4383L186.314 51.88ZM182.794 55.92L183.324 56.7681L183.335 56.7612L182.794 55.92ZM173.674 56.4L173.195 57.2779L173.203 57.2821L173.21 57.2862L173.674 56.4ZM170.914 53.88L171.756 53.3403L169.914 50.467V53.88H170.914ZM170.914 57V58H171.914V57H170.914ZM164.074 57H163.074V58H164.074V57ZM164.074 27.4V26.4H163.074V27.4H164.074ZM170.914 27.4H171.914V26.4H170.914V27.4ZM179.234 41.8L178.507 42.4872L178.517 42.4973L178.527 42.5071L179.234 41.8ZM172.274 41.8L171.557 41.1026L171.547 41.1128L172.274 41.8ZM172.274 49.88L171.547 50.5673L171.557 50.5774L172.274 49.88ZM179.234 49.88L179.951 50.5774L179.96 50.5677L179.234 49.88ZM171.765 38.3641C172.302 37.4919 173.083 36.7686 174.144 36.2024L173.203 34.4376C171.865 35.1514 170.805 36.1081 170.062 37.3159L171.765 38.3641ZM174.144 36.2024C175.181 35.6496 176.388 35.36 177.794 35.36V33.36C176.106 33.36 174.567 33.7104 173.203 34.4376L174.144 36.2024ZM177.794 35.36C179.455 35.36 180.937 35.7786 182.264 36.608L183.324 34.912C181.664 33.8748 179.812 33.36 177.794 33.36V35.36ZM182.264 36.608C183.584 37.4332 184.637 38.6185 185.417 40.2017L187.211 39.3183C186.284 37.4348 184.99 35.9534 183.324 34.912L182.264 36.608ZM185.422 40.2127C186.219 41.7826 186.634 43.6358 186.634 45.8H188.634C188.634 43.3775 188.168 41.204 187.205 39.3073L185.422 40.2127ZM186.634 45.8C186.634 47.9637 186.219 49.8329 185.419 51.4328L187.208 52.3272C188.168 50.4071 188.634 48.2229 188.634 45.8H186.634ZM185.417 51.4383C184.636 53.0235 183.58 54.2257 182.253 55.0788L183.335 56.7612C184.994 55.6943 186.285 54.2032 187.211 52.3217L185.417 51.4383ZM182.264 55.072C180.937 55.9014 179.455 56.32 177.794 56.32V58.32C179.812 58.32 181.664 57.8052 183.324 56.768L182.264 55.072ZM177.794 56.32C176.351 56.32 175.143 56.0395 174.137 55.5138L173.21 57.2862C174.551 57.9872 176.089 58.32 177.794 58.32V56.32ZM174.153 55.5221C173.114 54.9558 172.324 54.2274 171.756 53.3403L170.072 54.4197C170.837 55.6126 171.886 56.5642 173.195 57.2779L174.153 55.5221ZM169.914 53.88V57H171.914V53.88H169.914ZM170.914 56H164.074V58H170.914V56ZM165.074 57V27.4H163.074V57H165.074ZM164.074 28.4H170.914V26.4H164.074V28.4ZM169.914 27.4V37.84H171.914V27.4H169.914ZM181.674 45.8C181.674 43.9 181.134 42.2858 179.941 41.0929L178.527 42.5071C179.254 43.2342 179.674 44.2867 179.674 45.8H181.674ZM179.96 41.1128C178.834 39.9218 177.409 39.32 175.754 39.32V41.32C176.872 41.32 177.767 41.7049 178.507 42.4872L179.96 41.1128ZM175.754 39.32C174.12 39.32 172.703 39.9252 171.557 41.1026L172.99 42.4974C173.765 41.7015 174.667 41.32 175.754 41.32V39.32ZM171.547 41.1128C170.396 42.3296 169.874 43.9463 169.874 45.84H171.874C171.874 44.3204 172.285 43.2437 173 42.4872L171.547 41.1128ZM169.874 45.84C169.874 47.7337 170.396 49.3504 171.547 50.5672L173 49.1928C172.285 48.4363 171.874 47.3596 171.874 45.84H169.874ZM171.557 50.5774C172.703 51.7548 174.12 52.36 175.754 52.36V50.36C174.667 50.36 173.765 49.9785 172.99 49.1826L171.557 50.5774ZM175.754 52.36C177.387 52.36 178.805 51.7548 179.95 50.5774L178.517 49.1826C177.743 49.9785 176.84 50.36 175.754 50.36V52.36ZM179.96 50.5677C181.133 49.3292 181.674 47.7024 181.674 45.8H179.674C179.674 47.3109 179.254 48.4041 178.508 49.1923L179.96 50.5677ZM232.019 28.92H233.019V27.92H232.019V28.92ZM232.019 57V58H233.019V57H232.019ZM225.179 57H224.179V58H225.179V57ZM225.179 45.44H226.179V44.44H225.179V45.44ZM214.539 45.44V44.44H213.539V45.44H214.539ZM214.539 57V58H215.539V57H214.539ZM207.699 57H206.699V58H207.699V57ZM207.699 28.92V27.92H206.699V28.92H207.699ZM214.539 28.92H215.539V27.92H214.539V28.92ZM214.539 39.92H213.539V40.92H214.539V39.92ZM225.179 39.92V40.92H226.179V39.92H225.179ZM225.179 28.92V27.92H224.179V28.92H225.179ZM231.019 28.92V57H233.019V28.92H231.019ZM232.019 56H225.179V58H232.019V56ZM226.179 57V45.44H224.179V57H226.179ZM225.179 44.44H214.539V46.44H225.179V44.44ZM213.539 45.44V57H215.539V45.44H213.539ZM214.539 56H207.699V58H214.539V56ZM208.699 57V28.92H206.699V57H208.699ZM207.699 29.92H214.539V27.92H207.699V29.92ZM213.539 28.92V39.92H215.539V28.92H213.539ZM214.539 40.92H225.179V38.92H214.539V40.92ZM226.179 39.92V28.92H224.179V39.92H226.179ZM225.179 29.92H232.019V27.92H225.179V29.92ZM245.197 55.92L244.722 56.8005L244.728 56.8035L245.197 55.92ZM241.077 51.92L240.207 52.4147L240.213 52.4247L241.077 51.92ZM241.117 39.8L241.98 40.3047L241.983 40.299L241.117 39.8ZM245.277 35.76L245.745 36.6435L245.745 36.6435L245.277 35.76ZM257.117 35.76L256.648 36.6435L256.648 36.6435L257.117 35.76ZM261.277 39.8L260.41 40.299L260.413 40.3047L261.277 39.8ZM261.237 51.92L260.376 51.4113L260.373 51.4153L261.237 51.92ZM257.037 55.92L256.574 55.0336L256.568 55.0365L257.037 55.92ZM254.437 49.96L253.72 49.2629L253.715 49.2681L253.71 49.2734L254.437 49.96ZM254.477 41.72L253.739 42.3957L253.744 42.4012L253.75 42.4066L254.477 41.72ZM247.877 41.72L248.604 42.4061L248.614 42.3957L247.877 41.72ZM247.837 49.96L247.089 50.6244L247.094 50.6301L247.099 50.6357L247.837 49.96ZM251.117 56.32C249.077 56.32 247.267 55.8861 245.665 55.0365L244.728 56.8035C246.646 57.8206 248.783 58.32 251.117 58.32V56.32ZM245.671 55.0395C244.102 54.1951 242.862 52.9933 241.94 51.4153L240.213 52.4247C241.317 54.3133 242.824 55.7782 244.722 56.8005L245.671 55.0395ZM241.946 51.4253C241.058 49.8657 240.597 48.0151 240.597 45.84H238.597C238.597 48.3049 239.122 50.5076 240.207 52.4147L241.946 51.4253ZM240.597 45.84C240.597 43.6984 241.068 41.8642 241.98 40.3047L240.253 39.2953C239.138 41.2025 238.597 43.3949 238.597 45.84H240.597ZM241.983 40.299C242.905 38.6987 244.155 37.4868 245.745 36.6435L244.808 34.8765C242.878 35.8998 241.355 37.3813 240.25 39.301L241.983 40.299ZM245.745 36.6435C247.347 35.7939 249.157 35.36 251.197 35.36V33.36C248.863 33.36 246.726 33.8594 244.808 34.8765L245.745 36.6435ZM251.197 35.36C253.236 35.36 255.046 35.7939 256.648 36.6435L257.585 34.8765C255.667 33.8594 253.53 33.36 251.197 33.36V35.36ZM256.648 36.6435C258.238 37.4868 259.489 38.6987 260.41 40.299L262.143 39.301C261.038 37.3813 259.515 35.8998 257.585 34.8765L256.648 36.6435ZM260.413 40.3047C261.325 41.8642 261.797 43.6984 261.797 45.84H263.797C263.797 43.3949 263.255 41.2025 262.14 39.2953L260.413 40.3047ZM261.797 45.84C261.797 47.9767 261.314 49.8235 260.376 51.4113L262.097 52.4287C263.239 50.4965 263.797 48.29 263.797 45.84H261.797ZM260.373 51.4153C259.455 52.9856 258.194 54.187 256.574 55.0337L257.5 56.8063C259.452 55.7863 260.991 54.321 262.1 52.4247L260.373 51.4153ZM256.568 55.0365C254.966 55.8861 253.156 56.32 251.117 56.32V58.32C253.45 58.32 255.587 57.8206 257.505 56.8035L256.568 55.0365ZM251.117 52.4C252.702 52.4 254.07 51.8042 255.164 50.6466L253.71 49.2734C252.99 50.0358 252.145 50.4 251.117 50.4V52.4ZM255.154 50.6571C256.322 49.4548 256.837 47.7975 256.837 45.84H254.837C254.837 47.4559 254.417 48.5452 253.72 49.2629L255.154 50.6571ZM256.837 45.84C256.837 43.8898 256.34 42.2365 255.204 41.0334L253.75 42.4066C254.427 43.1235 254.837 44.2168 254.837 45.84H256.837ZM255.214 41.0443C254.144 39.8769 252.782 39.28 251.197 39.28V41.28C252.224 41.28 253.05 41.6431 253.739 42.3957L255.214 41.0443ZM251.197 39.28C249.591 39.28 248.214 39.8721 247.139 41.0443L248.614 42.3957C249.299 41.6479 250.136 41.28 251.197 41.28V39.28ZM247.149 41.034C246.033 42.2177 245.557 43.8774 245.557 45.84H247.557C247.557 44.176 247.96 43.089 248.604 42.406L247.149 41.034ZM245.557 45.84C245.557 47.7758 246.019 49.4206 247.089 50.6244L248.584 49.2956C247.947 48.5794 247.557 47.4775 247.557 45.84H245.557ZM247.099 50.6357C248.17 51.8031 249.531 52.4 251.117 52.4V50.4C250.089 50.4 249.264 50.0369 248.574 49.2843L247.099 50.6357ZM277.265 37.84H276.265V41.253L278.107 38.3797L277.265 37.84ZM280.025 35.32L279.546 34.4421L279.546 34.4421L280.025 35.32ZM289.145 35.76L288.615 36.608L288.615 36.608L289.145 35.76ZM292.665 39.76L291.768 40.2017L291.774 40.2127L292.665 39.76ZM292.665 51.88L291.771 51.4328L291.768 51.4383L292.665 51.88ZM289.145 55.92L289.675 56.7681L289.686 56.7612L289.145 55.92ZM280.025 56.36L279.546 57.2379L279.555 57.2424L280.025 56.36ZM277.265 53.88L278.101 53.3304L276.265 50.5406V53.88H277.265ZM277.265 67.64V68.64H278.265V67.64H277.265ZM270.425 67.64H269.425V68.64H270.425V67.64ZM270.425 34.68V33.68H269.425V34.68H270.425ZM277.265 34.68H278.265V33.68H277.265V34.68ZM285.585 41.8L284.859 42.4872L284.868 42.4973L284.878 42.5071L285.585 41.8ZM278.625 41.8L277.909 41.1026L277.899 41.1128L278.625 41.8ZM278.625 49.88L277.899 50.5673L277.909 50.5774L278.625 49.88ZM285.585 49.88L286.302 50.5774L286.311 50.5677L285.585 49.88ZM278.107 38.3797C278.676 37.4926 279.466 36.7642 280.504 36.1979L279.546 34.4421C278.238 35.1558 277.188 36.1074 276.423 37.3003L278.107 38.3797ZM280.504 36.1979C281.507 35.6511 282.71 35.36 284.145 35.36V33.36C282.434 33.36 280.891 33.7089 279.546 34.4421L280.504 36.1979ZM284.145 35.36C285.807 35.36 287.288 35.7786 288.615 36.608L289.675 34.912C288.016 33.8748 286.164 33.36 284.145 33.36V35.36ZM288.615 36.608C289.936 37.4332 290.989 38.6185 291.768 40.2017L293.562 39.3183C292.635 37.4348 291.342 35.9534 289.675 34.912L288.615 36.608ZM291.774 40.2127C292.571 41.7826 292.985 43.6358 292.985 45.8H294.985C294.985 43.3775 294.52 41.204 293.557 39.3073L291.774 40.2127ZM292.985 45.8C292.985 47.9637 292.571 49.8329 291.771 51.4328L293.56 52.3272C294.52 50.4071 294.985 48.2229 294.985 45.8H292.985ZM291.768 51.4383C290.988 53.0235 289.932 54.2257 288.605 55.0788L289.686 56.7612C291.346 55.6943 292.636 54.2032 293.562 52.3217L291.768 51.4383ZM288.615 55.072C287.288 55.9014 285.807 56.32 284.145 56.32V58.32C286.164 58.32 288.016 57.8052 289.675 56.768L288.615 55.072ZM284.145 56.32C282.74 56.32 281.532 56.0304 280.496 55.4776L279.555 57.2424C280.918 57.9696 282.457 58.32 284.145 58.32V56.32ZM280.504 55.4821C279.46 54.9125 278.668 54.1931 278.101 53.3304L276.43 54.4296C277.196 55.5935 278.244 56.5275 279.546 57.2379L280.504 55.4821ZM276.265 53.88V67.64H278.265V53.88H276.265ZM277.265 66.64H270.425V68.64H277.265V66.64ZM271.425 67.64V34.68H269.425V67.64H271.425ZM270.425 35.68H277.265V33.68H270.425V35.68ZM276.265 34.68V37.84H278.265V34.68H276.265ZM288.025 45.8C288.025 43.9 287.485 42.2858 286.292 41.0929L284.878 42.5071C285.605 43.2342 286.025 44.2867 286.025 45.8H288.025ZM286.312 41.1128C285.185 39.9218 283.76 39.32 282.105 39.32V41.32C283.224 41.32 284.119 41.7049 284.859 42.4872L286.312 41.1128ZM282.105 39.32C280.472 39.32 279.054 39.9252 277.909 41.1026L279.342 42.4974C280.116 41.7015 281.019 41.32 282.105 41.32V39.32ZM277.899 41.1128C276.748 42.3296 276.225 43.9463 276.225 45.84H278.225C278.225 44.3204 278.636 43.2437 279.352 42.4872L277.899 41.1128ZM276.225 45.84C276.225 47.7337 276.748 49.3504 277.899 50.5672L279.352 49.1928C278.636 48.4363 278.225 47.3596 278.225 45.84H276.225ZM277.909 50.5774C279.054 51.7548 280.472 52.36 282.105 52.36V50.36C281.019 50.36 280.116 49.9785 279.342 49.1826L277.909 50.5774ZM282.105 52.36C283.739 52.36 285.156 51.7548 286.302 50.5774L284.869 49.1826C284.094 49.9785 283.192 50.36 282.105 50.36V52.36ZM286.311 50.5677C287.485 49.3292 288.025 47.7024 288.025 45.8H286.025C286.025 47.3109 285.606 48.4041 284.859 49.1923L286.311 50.5677ZM308.414 37.84H307.414V41.253L309.256 38.3797L308.414 37.84ZM311.174 35.32L310.695 34.4421L310.695 34.4421L311.174 35.32ZM320.294 35.76L319.764 36.608L319.764 36.608L320.294 35.76ZM323.814 39.76L322.917 40.2017L322.922 40.2127L323.814 39.76ZM323.814 51.88L322.919 51.4328L322.917 51.4383L323.814 51.88ZM320.294 55.92L320.824 56.7681L320.835 56.7612L320.294 55.92ZM311.174 56.36L310.695 57.2379L310.703 57.2424L311.174 56.36ZM308.414 53.88L309.249 53.3304L307.414 50.5406V53.88H308.414ZM308.414 67.64V68.64H309.414V67.64H308.414ZM301.574 67.64H300.574V68.64H301.574V67.64ZM301.574 34.68V33.68H300.574V34.68H301.574ZM308.414 34.68H309.414V33.68H308.414V34.68ZM316.734 41.8L316.007 42.4872L316.017 42.4973L316.027 42.5071L316.734 41.8ZM309.774 41.8L309.057 41.1026L309.047 41.1128L309.774 41.8ZM309.774 49.88L309.047 50.5673L309.057 50.5774L309.774 49.88ZM316.734 49.88L317.451 50.5774L317.46 50.5677L316.734 49.88ZM309.256 38.3797C309.824 37.4926 310.614 36.7642 311.653 36.1979L310.695 34.4421C309.386 35.1558 308.337 36.1074 307.572 37.3003L309.256 38.3797ZM311.653 36.1979C312.655 35.6511 313.858 35.36 315.294 35.36V33.36C313.583 33.36 312.039 33.7089 310.695 34.4421L311.653 36.1979ZM315.294 35.36C316.955 35.36 318.437 35.7786 319.764 36.608L320.824 34.912C319.164 33.8748 317.312 33.36 315.294 33.36V35.36ZM319.764 36.608C321.084 37.4332 322.137 38.6185 322.917 40.2017L324.711 39.3183C323.784 37.4348 322.49 35.9534 320.824 34.912L319.764 36.608ZM322.922 40.2127C323.719 41.7826 324.134 43.6358 324.134 45.8H326.134C326.134 43.3775 325.668 41.204 324.705 39.3073L322.922 40.2127ZM324.134 45.8C324.134 47.9637 323.719 49.8329 322.919 51.4328L324.708 52.3272C325.668 50.4071 326.134 48.2229 326.134 45.8H324.134ZM322.917 51.4383C322.136 53.0235 321.08 54.2257 319.753 55.0788L320.835 56.7612C322.494 55.6943 323.785 54.2032 324.711 52.3217L322.917 51.4383ZM319.764 55.072C318.437 55.9014 316.955 56.32 315.294 56.32V58.32C317.312 58.32 319.164 57.8052 320.824 56.768L319.764 55.072ZM315.294 56.32C313.888 56.32 312.681 56.0304 311.644 55.4776L310.703 57.2424C312.067 57.9696 313.606 58.32 315.294 58.32V56.32ZM311.653 55.4821C310.608 54.9125 309.817 54.1931 309.249 53.3304L307.578 54.4296C308.344 55.5935 309.393 56.5275 310.695 57.2379L311.653 55.4821ZM307.414 53.88V67.64H309.414V53.88H307.414ZM308.414 66.64H301.574V68.64H308.414V66.64ZM302.574 67.64V34.68H300.574V67.64H302.574ZM301.574 35.68H308.414V33.68H301.574V35.68ZM307.414 34.68V37.84H309.414V34.68H307.414ZM319.174 45.8C319.174 43.9 318.634 42.2858 317.441 41.0929L316.027 42.5071C316.754 43.2342 317.174 44.2867 317.174 45.8H319.174ZM317.46 41.1128C316.334 39.9218 314.909 39.32 313.254 39.32V41.32C314.372 41.32 315.267 41.7049 316.007 42.4872L317.46 41.1128ZM313.254 39.32C311.62 39.32 310.203 39.9252 309.057 41.1026L310.49 42.4974C311.265 41.7015 312.167 41.32 313.254 41.32V39.32ZM309.047 41.1128C307.896 42.3296 307.374 43.9463 307.374 45.84H309.374C309.374 44.3204 309.785 43.2437 310.5 42.4872L309.047 41.1128ZM307.374 45.84C307.374 47.7337 307.896 49.3504 309.047 50.5672L310.5 49.1928C309.785 48.4363 309.374 47.3596 309.374 45.84H307.374ZM309.057 50.5774C310.203 51.7548 311.62 52.36 313.254 52.36V50.36C312.167 50.36 311.265 49.9785 310.49 49.1826L309.057 50.5774ZM313.254 52.36C314.887 52.36 316.305 51.7548 317.45 50.5774L316.017 49.1826C315.243 49.9785 314.34 50.36 313.254 50.36V52.36ZM317.46 50.5677C318.633 49.3292 319.174 47.7024 319.174 45.8H317.174C317.174 47.3109 316.754 48.4041 316.008 49.1923L317.46 50.5677ZM353.642 47.48V48.48H354.533L354.636 47.5946L353.642 47.48ZM338.162 47.48V46.48H337.082L337.165 47.5567L338.162 47.48ZM339.482 50.68L338.788 51.3994L338.8 51.4116L338.813 51.4233L339.482 50.68ZM345.962 49.6V48.6H345.323L345.055 49.1799L345.962 49.6ZM353.242 49.6L354.211 49.8467L354.529 48.6H353.242V49.6ZM351.202 53.56L350.437 52.9163L350.428 52.9268L351.202 53.56ZM347.562 56.32L347.976 57.2304L347.562 56.32ZM336.802 55.92L336.322 56.7974L336.322 56.7974L336.802 55.92ZM332.802 51.92L333.677 51.4355L333.677 51.4355L332.802 51.92ZM332.762 39.76L331.887 39.2755L331.882 39.2859L332.762 39.76ZM336.762 35.76L337.242 36.6374L337.242 36.6374L336.762 35.76ZM348.402 35.72L347.927 36.6L347.927 36.6L348.402 35.72ZM352.322 39.6L351.448 40.0857L351.454 40.0961L352.322 39.6ZM346.762 43.68V44.68H347.762V43.68H346.762ZM345.562 40.88L346.217 40.1243L346.217 40.1243L345.562 40.88ZM339.642 40.84L339.002 40.0718L338.996 40.0771L338.989 40.0826L339.642 40.84ZM338.202 43.68L337.214 43.5296L337.039 44.68H338.202V43.68ZM352.762 45.48C352.762 46.0784 352.725 46.7067 352.649 47.3654L354.636 47.5946C354.72 46.8666 354.762 46.1616 354.762 45.48H352.762ZM353.642 46.48H338.162V48.48H353.642V46.48ZM337.165 47.5567C337.285 49.1139 337.792 50.4377 338.788 51.3994L340.177 49.9606C339.626 49.429 339.253 48.6195 339.159 47.4033L337.165 47.5567ZM338.813 51.4233C339.81 52.32 341.026 52.76 342.402 52.76V50.76C341.485 50.76 340.755 50.48 340.151 49.9367L338.813 51.4233ZM342.402 52.76C343.397 52.76 344.309 52.5494 345.091 52.0749C345.878 51.5976 346.465 50.8938 346.87 50.0201L345.055 49.1799C344.793 49.7462 344.453 50.1224 344.053 50.3651C343.649 50.6106 343.115 50.76 342.402 50.76V52.76ZM345.962 50.6H353.242V48.6H345.962V50.6ZM352.273 49.3533C351.937 50.6721 351.328 51.8568 350.437 52.9164L351.968 54.2036C353.05 52.9165 353.8 51.4613 354.211 49.8467L352.273 49.3533ZM350.428 52.9268C349.571 53.9739 348.484 54.8024 347.148 55.4096L347.976 57.2304C349.573 56.5043 350.913 55.4928 351.976 54.1932L350.428 52.9268ZM347.148 55.4096C345.827 56.0102 344.331 56.32 342.642 56.32V58.32C344.58 58.32 346.364 57.9631 347.976 57.2304L347.148 55.4096ZM342.642 56.32C340.602 56.32 338.824 55.8859 337.282 55.0426L336.322 56.7974C338.194 57.8207 340.309 58.32 342.642 58.32V56.32ZM337.282 55.0426C335.745 54.202 334.547 53.0064 333.677 51.4355L331.927 52.4045C332.977 54.3003 334.446 55.7714 336.322 56.7974L337.282 55.0426ZM333.677 51.4355C332.812 49.874 332.362 48.0196 332.362 45.84H330.362C330.362 48.3004 330.872 50.4994 331.927 52.4045L333.677 51.4355ZM332.362 45.84C332.362 43.6559 332.801 41.7977 333.643 40.2341L331.882 39.2859C330.857 41.1889 330.362 43.3841 330.362 45.84H332.362ZM333.637 40.2445C334.507 38.6736 335.705 37.478 337.242 36.6374L336.282 34.8826C334.406 35.9086 332.937 37.3797 331.887 39.2755L333.637 40.2445ZM337.242 36.6374C338.782 35.795 340.573 35.36 342.642 35.36V33.36C340.285 33.36 338.155 33.8583 336.282 34.8826L337.242 36.6374ZM342.642 35.36C344.658 35.36 346.411 35.782 347.927 36.6L348.877 34.84C347.033 33.8447 344.946 33.36 342.642 33.36V35.36ZM347.927 36.6C349.438 37.4154 350.607 38.5713 351.448 40.0856L353.196 39.1144C352.171 37.2687 350.726 35.8379 348.877 34.84L347.927 36.6ZM351.454 40.0961C352.315 41.6027 352.762 43.3863 352.762 45.48H354.762C354.762 43.0937 354.25 40.9573 353.19 39.1039L351.454 40.0961ZM347.762 43.68C347.762 42.2519 347.262 41.0295 346.217 40.1243L344.907 41.6357C345.463 42.1171 345.762 42.7614 345.762 43.68H347.762ZM346.217 40.1243C345.211 39.2523 343.969 38.84 342.562 38.84V40.84C343.556 40.84 344.313 41.121 344.907 41.6357L346.217 40.1243ZM342.562 38.84C341.207 38.84 340 39.2399 339.002 40.0718L340.282 41.6082C340.884 41.1068 341.624 40.84 342.562 40.84V38.84ZM338.989 40.0826C337.998 40.9368 337.428 42.1199 337.214 43.5296L339.191 43.8304C339.35 42.7868 339.739 42.0766 340.295 41.5974L338.989 40.0826ZM338.202 44.68H346.762V42.68H338.202V44.68ZM368.211 38.4H367.211V41.7639L369.048 38.9463L368.211 38.4ZM371.211 35.52L371.711 36.3859L371.718 36.3817L371.725 36.3775L371.211 35.52ZM375.211 34.44H376.211V33.44H375.211V34.44ZM375.211 41.68V42.68H376.211V41.68H375.211ZM369.491 42.8L370.135 43.5643L370.142 43.5585L370.149 43.5526L369.491 42.8ZM368.211 57V58H369.211V57H368.211ZM361.371 57H360.371V58H361.371V57ZM361.371 34.68V33.68H360.371V34.68H361.371ZM368.211 34.68H369.211V33.68H368.211V34.68ZM369.048 38.9463C369.767 37.8435 370.655 36.9962 371.711 36.3859L370.71 34.6541C369.367 35.4305 368.254 36.5032 367.373 37.8537L369.048 38.9463ZM371.725 36.3775C372.762 35.7553 373.916 35.44 375.211 35.44V33.44C373.572 33.44 372.059 33.8447 370.696 34.6625L371.725 36.3775ZM374.211 34.44V41.68H376.211V34.44H374.211ZM375.211 40.68H373.331V42.68H375.211V40.68ZM373.331 40.68C371.5 40.68 369.941 41.0775 368.832 42.0474L370.149 43.5526C370.747 43.0291 371.748 42.68 373.331 42.68V40.68ZM368.846 42.0357C367.656 43.0398 367.211 44.6917 367.211 46.64H369.211C369.211 44.9083 369.619 44.0002 370.135 43.5643L368.846 42.0357ZM367.211 46.64V57H369.211V46.64H367.211ZM368.211 56H361.371V58H368.211V56ZM362.371 57V34.68H360.371V57H362.371ZM361.371 35.68H368.211V33.68H361.371V35.68ZM367.211 34.68V38.4H369.211V34.68H367.211Z" fill="#00BFA6" mask="url(#path-1-outside-1_20_6)"/>
<rect x="0.5" y="0.5" width="79" height="79" rx="9.5" fill="#00BFA6" stroke="#00BFA6"/>
<path d="M43.043 44.2695V24.5625H48.8828V44.2695C48.8828 46.1706 48.4661 47.8047 47.6328 49.1719C46.7995 50.526 45.6602 51.5677 44.2148 52.2969C42.7826 53.026 41.168 53.3906 39.3711 53.3906C37.5091 53.3906 35.862 53.0781 34.4297 52.4531C32.9974 51.8281 31.8711 50.8711 31.0508 49.582C30.2305 48.2799 29.8203 46.6328 29.8203 44.6406H35.6992C35.6992 45.6823 35.8424 46.5091 36.1289 47.1211C36.4284 47.7331 36.8516 48.1693 37.3984 48.4297C37.9453 48.6901 38.6029 48.8203 39.3711 48.8203C40.1133 48.8203 40.7578 48.6445 41.3047 48.293C41.8516 47.9414 42.2747 47.4271 42.5742 46.75C42.8867 46.0729 43.043 45.2461 43.043 44.2695Z" fill="white"/>
</svg>
