<svg width="486" height="80" viewBox="0 0 486 80" fill="none" xmlns="http://www.w3.org/2000/svg">
<path d="M125.08 28.92V48.04C125.08 51 124.24 53.28 122.56 54.88C120.907 56.48 118.667 57.28 115.84 57.28C112.88 57.28 110.507 56.44 108.72 54.76C106.933 53.08 106.04 50.6933 106.04 47.6H112.84C112.84 48.7733 113.08 49.6667 113.56 50.28C114.04 50.8667 114.733 51.16 115.64 51.16C116.467 51.16 117.107 50.8933 117.56 50.36C118.013 49.8267 118.24 49.0533 118.24 48.04V28.92H125.08ZM144.765 57.32C142.578 57.32 140.605 56.8533 138.845 55.92C137.112 54.9867 135.738 53.6533 134.725 51.92C133.738 50.1867 133.245 48.16 133.245 45.84C133.245 43.5467 133.752 41.5333 134.765 39.8C135.778 38.04 137.165 36.6933 138.925 35.76C140.685 34.8267 142.658 34.36 144.845 34.36C147.032 34.36 149.005 34.8267 150.765 35.76C152.525 36.6933 153.912 38.04 154.925 39.8C155.938 41.5333 156.445 43.5467 156.445 45.84C156.445 48.1333 155.925 50.16 154.885 51.92C153.872 53.6533 152.472 54.9867 150.685 55.92C148.925 56.8533 146.952 57.32 144.765 57.32ZM144.765 51.4C146.072 51.4 147.178 50.92 148.085 49.96C149.018 49 149.485 47.6267 149.485 45.84C149.485 44.0533 149.032 42.68 148.125 41.72C147.245 40.76 146.152 40.28 144.845 40.28C143.512 40.28 142.405 40.76 141.525 41.72C140.645 42.6533 140.205 44.0267 140.205 45.84C140.205 47.6267 140.632 49 141.485 49.96C142.365 50.92 143.458 51.4 144.765 51.4ZM170.914 37.84C171.554 36.8 172.474 35.96 173.674 35.32C174.874 34.68 176.247 34.36 177.794 34.36C179.634 34.36 181.3 34.8267 182.794 35.76C184.287 36.6933 185.46 38.0267 186.314 39.76C187.194 41.4933 187.634 43.5067 187.634 45.8C187.634 48.0933 187.194 50.12 186.314 51.88C185.46 53.6133 184.287 54.96 182.794 55.92C181.3 56.8533 179.634 57.32 177.794 57.32C176.22 57.32 174.847 57.0133 173.674 56.4C172.5 55.76 171.58 54.92 170.914 53.88V57H164.074V27.4H170.914V37.84ZM180.674 45.8C180.674 44.0933 180.194 42.76 179.234 41.8C178.3 40.8133 177.14 40.32 175.754 40.32C174.394 40.32 173.234 40.8133 172.274 41.8C171.34 42.7867 170.874 44.1333 170.874 45.84C170.874 47.5467 171.34 48.8933 172.274 49.88C173.234 50.8667 174.394 51.36 175.754 51.36C177.114 51.36 178.274 50.8667 179.234 49.88C180.194 48.8667 180.674 47.5067 180.674 45.8ZM232.019 28.92V57H225.179V45.44H214.539V57H207.699V28.92H214.539V39.92H225.179V28.92H232.019ZM251.117 57.32C248.93 57.32 246.957 56.8533 245.197 55.92C243.463 54.9867 242.09 53.6533 241.077 51.92C240.09 50.1867 239.597 48.16 239.597 45.84C239.597 43.5467 240.103 41.5333 241.117 39.8C242.13 38.04 243.517 36.6933 245.277 35.76C247.037 34.8267 249.01 34.36 251.197 34.36C253.383 34.36 255.357 34.8267 257.117 35.76C258.877 36.6933 260.263 38.04 261.277 39.8C262.29 41.5333 262.797 43.5467 262.797 45.84C262.797 48.1333 262.277 50.16 261.237 51.92C260.223 53.6533 258.823 54.9867 257.037 55.92C255.277 56.8533 253.303 57.32 251.117 57.32ZM251.117 51.4C252.423 51.4 253.53 50.92 254.437 49.96C255.37 49 255.837 47.6267 255.837 45.84C255.837 44.0533 255.383 42.68 254.477 41.72C253.597 40.76 252.503 40.28 251.197 40.28C249.863 40.28 248.757 40.76 247.877 41.72C246.997 42.6533 246.557 44.0267 246.557 45.84C246.557 47.6267 246.983 49 247.837 49.96C248.717 50.92 249.81 51.4 251.117 51.4ZM277.265 37.84C277.932 36.8 278.852 35.96 280.025 35.32C281.199 34.68 282.572 34.36 284.145 34.36C285.985 34.36 287.652 34.8267 289.145 35.76C290.639 36.6933 291.812 38.0267 292.665 39.76C293.545 41.4933 293.985 43.5067 293.985 45.8C293.985 48.0933 293.545 50.12 292.665 51.88C291.812 53.6133 290.639 54.96 289.145 55.92C287.652 56.8533 285.985 57.32 284.145 57.32C282.599 57.32 281.225 57 280.025 56.36C278.852 55.72 277.932 54.8933 277.265 53.88V67.64H270.425V34.68H277.265V37.84ZM287.025 45.8C287.025 44.0933 286.545 42.76 285.585 41.8C284.652 40.8133 283.492 40.32 282.105 40.32C280.745 40.32 279.585 40.8133 278.625 41.8C277.692 42.7867 277.225 44.1333 277.225 45.84C277.225 47.5467 277.692 48.8933 278.625 49.88C279.585 50.8667 280.745 51.36 282.105 51.36C283.465 51.36 284.625 50.8667 285.585 49.88C286.545 48.8667 287.025 47.5067 287.025 45.8ZM308.414 37.84C309.08 36.8 310 35.96 311.174 35.32C312.347 34.68 313.72 34.36 315.294 34.36C317.134 34.36 318.8 34.8267 320.294 35.76C321.787 36.6933 322.96 38.0267 323.814 39.76C324.694 41.4933 325.134 43.5067 325.134 45.8C325.134 48.0933 324.694 50.12 323.814 51.88C322.96 53.6133 321.787 54.96 320.294 55.92C318.8 56.8533 317.134 57.32 315.294 57.32C313.747 57.32 312.374 57 311.174 56.36C310 55.72 309.08 54.8933 308.414 53.88V67.64H301.574V34.68H308.414V37.84ZM318.174 45.8C318.174 44.0933 317.694 42.76 316.734 41.8C315.8 40.8133 314.64 40.32 313.254 40.32C311.894 40.32 310.734 40.8133 309.774 41.8C308.84 42.7867 308.374 44.1333 308.374 45.84C308.374 47.5467 308.84 48.8933 309.774 49.88C310.734 50.8667 311.894 51.36 313.254 51.36C314.614 51.36 315.774 50.8667 316.734 49.88C317.694 48.8667 318.174 47.5067 318.174 45.8ZM353.762 45.48C353.762 46.12 353.722 46.7867 353.642 47.48H338.162C338.269 48.8667 338.709 49.9333 339.482 50.68C340.282 51.4 341.256 51.76 342.402 51.76C344.109 51.76 345.296 51.04 345.962 49.6H353.242C352.869 51.0667 352.189 52.3867 351.202 53.56C350.242 54.7333 349.029 55.6533 347.562 56.32C346.096 56.9867 344.456 57.32 342.642 57.32C340.456 57.32 338.509 56.8533 336.802 55.92C335.096 54.9867 333.762 53.6533 332.802 51.92C331.842 50.1867 331.362 48.16 331.362 45.84C331.362 43.52 331.829 41.4933 332.762 39.76C333.722 38.0267 335.056 36.6933 336.762 35.76C338.469 34.8267 340.429 34.36 342.642 34.36C344.802 34.36 346.722 34.8133 348.402 35.72C350.082 36.6267 351.389 37.92 352.322 39.6C353.282 41.28 353.762 43.24 353.762 45.48ZM346.762 43.68C346.762 42.5067 346.362 41.5733 345.562 40.88C344.762 40.1867 343.762 39.84 342.562 39.84C341.416 39.84 340.442 40.1733 339.642 40.84C338.869 41.5067 338.389 42.4533 338.202 43.68H346.762ZM368.211 38.4C369.011 37.1733 370.011 36.2133 371.211 35.52C372.411 34.8 373.744 34.44 375.211 34.44V41.68H373.331C371.624 41.68 370.344 42.0533 369.491 42.8C368.637 43.52 368.211 44.8 368.211 46.64V57H361.371V34.68H368.211V38.4Z" fill="#16A34A"/>
<path d="M125.08 28.92H125.58V28.42H125.08V28.92ZM122.56 54.88L122.215 54.5179L122.212 54.5207L122.56 54.88ZM108.72 54.76L108.377 55.1243L108.377 55.1243L108.72 54.76ZM106.04 47.6V47.1H105.54V47.6H106.04ZM112.84 47.6H113.34V47.1H112.84V47.6ZM113.56 50.28L113.166 50.5882L113.173 50.5966L113.56 50.28ZM117.56 50.36L117.179 50.0362L117.179 50.0362L117.56 50.36ZM118.24 28.92V28.42H117.74V28.92H118.24ZM124.58 28.92V48.04H125.58V28.92H124.58ZM124.58 48.04C124.58 50.9031 123.77 53.0367 122.215 54.5179L122.905 55.2421C124.71 53.5233 125.58 51.0969 125.58 48.04H124.58ZM122.212 54.5207C120.673 56.0108 118.568 56.78 115.84 56.78V57.78C118.765 57.78 121.141 56.9492 122.908 55.2393L122.212 54.5207ZM115.84 56.78C112.979 56.78 110.738 55.9712 109.063 54.3957L108.377 55.1243C110.275 56.9088 112.781 57.78 115.84 57.78V56.78ZM109.063 54.3957C107.401 52.8336 106.54 50.5937 106.54 47.6H105.54C105.54 50.7929 106.465 53.3264 108.377 55.1243L109.063 54.3957ZM106.04 48.1H112.84V47.1H106.04V48.1ZM112.34 47.6C112.34 48.8311 112.59 49.8521 113.166 50.5882L113.954 49.9718C113.57 49.4812 113.34 48.7156 113.34 47.6H112.34ZM113.173 50.5966C113.767 51.3224 114.616 51.66 115.64 51.66V50.66C114.851 50.66 114.313 50.4109 113.947 49.9634L113.173 50.5966ZM115.64 51.66C116.584 51.66 117.375 51.3495 117.941 50.6838L117.179 50.0362C116.838 50.4372 116.349 50.66 115.64 50.66V51.66ZM117.941 50.6838C118.499 50.0271 118.74 49.12 118.74 48.04H117.74C117.74 48.9867 117.527 49.6262 117.179 50.0362L117.941 50.6838ZM118.74 48.04V28.92H117.74V48.04H118.74ZM118.24 29.42H125.08V28.42H118.24V29.42ZM138.845 55.92L138.608 56.3602L138.611 56.3617L138.845 55.92ZM134.725 51.92L134.29 52.1674L134.293 52.1723L134.725 51.92ZM134.765 39.8L135.197 40.0524L135.198 40.0495L134.765 39.8ZM138.925 35.76L139.159 36.2017L139.159 36.2017L138.925 35.76ZM150.765 35.76L150.531 36.2017L150.531 36.2017L150.765 35.76ZM154.925 39.8L154.492 40.0495L154.493 40.0523L154.925 39.8ZM154.885 51.92L154.455 51.6656L154.453 51.6677L154.885 51.92ZM150.685 55.92L150.453 55.4768L150.451 55.4783L150.685 55.92ZM148.085 49.96L147.726 49.6114L147.721 49.6167L148.085 49.96ZM148.125 41.72L147.756 42.0579L147.761 42.0633L148.125 41.72ZM141.525 41.72L141.889 42.063L141.894 42.0579L141.525 41.72ZM141.485 49.96L141.111 50.2922L141.116 50.2979L141.485 49.96ZM144.765 56.82C142.652 56.82 140.76 56.3697 139.079 55.4783L138.611 56.3617C140.45 57.337 142.505 57.82 144.765 57.82V56.82ZM139.082 55.4798C137.431 54.5909 136.125 53.3233 135.157 51.6677L134.293 52.1723C135.352 53.9833 136.792 55.3824 138.608 56.3602L139.082 55.4798ZM135.16 51.6727C134.222 50.0262 133.745 48.0876 133.745 45.84H132.745C132.745 48.2324 133.254 50.3471 134.29 52.1673L135.16 51.6727ZM133.745 45.84C133.745 43.6225 134.234 41.6988 135.197 40.0523L134.333 39.5477C133.269 41.3679 132.745 43.4708 132.745 45.84H133.745ZM135.198 40.0495C136.166 38.3693 137.484 37.0901 139.159 36.2017L138.691 35.3183C136.846 36.2966 135.391 37.7107 134.332 39.5505L135.198 40.0495ZM139.159 36.2017C140.84 35.3103 142.732 34.86 144.845 34.86V33.86C142.585 33.86 140.53 34.343 138.691 35.3183L139.159 36.2017ZM144.845 34.86C146.958 34.86 148.85 35.3103 150.531 36.2017L150.999 35.3183C149.16 34.343 147.105 33.86 144.845 33.86V34.86ZM150.531 36.2017C152.206 37.0901 153.524 38.3693 154.492 40.0495L155.358 39.5505C154.299 37.7107 152.844 36.2966 150.999 35.3183L150.531 36.2017ZM154.493 40.0523C155.456 41.6988 155.945 43.6225 155.945 45.84H156.945C156.945 43.4708 156.421 41.3679 155.357 39.5477L154.493 40.0523ZM155.945 45.84C155.945 48.055 155.444 49.9917 154.455 51.6656L155.315 52.1744C156.406 50.3283 156.945 48.2117 156.945 45.84H155.945ZM154.453 51.6677C153.488 53.3195 152.157 54.5868 150.453 55.4768L150.917 56.3632C152.786 55.3865 154.256 53.9872 155.317 52.1723L154.453 51.6677ZM150.451 55.4783C148.77 56.3697 146.878 56.82 144.765 56.82V57.82C147.025 57.82 149.08 57.337 150.919 56.3617L150.451 55.4783ZM144.765 51.9C146.211 51.9 147.449 51.3621 148.449 50.3033L147.721 49.6167C146.908 50.4779 145.932 50.9 144.765 50.9V51.9ZM148.443 50.3085C149.495 49.2274 149.985 47.7121 149.985 45.84H148.985C148.985 47.5413 148.542 48.7726 147.727 49.6115L148.443 50.3085ZM149.985 45.84C149.985 43.9716 149.51 42.4582 148.489 41.3767L147.761 42.0633C148.553 42.9018 148.985 44.1351 148.985 45.84H149.985ZM148.494 41.3821C147.519 40.3184 146.291 39.78 144.845 39.78V40.78C146.012 40.78 146.971 41.2016 147.756 42.0579L148.494 41.3821ZM144.845 39.78C143.375 39.78 142.134 40.3161 141.156 41.3821L141.894 42.0579C142.676 41.2039 143.648 40.78 144.845 40.78V39.78ZM141.161 41.377C140.163 42.4355 139.705 43.952 139.705 45.84H140.705C140.705 44.1013 141.127 42.8712 141.889 42.063L141.161 41.377ZM139.705 45.84C139.705 47.7012 140.15 49.2103 141.111 50.2922L141.859 49.6278C141.114 48.7897 140.705 47.5521 140.705 45.84H139.705ZM141.116 50.2979C142.091 51.3616 143.319 51.9 144.765 51.9V50.9C143.598 50.9 142.639 50.4784 141.854 49.6221L141.116 50.2979ZM170.914 37.84H170.414V39.6065L171.34 38.102L170.914 37.84ZM173.674 35.32L173.438 34.8788L173.438 34.8788L173.674 35.32ZM182.794 35.76L182.529 36.184L182.529 36.184L182.794 35.76ZM186.314 39.76L185.865 39.9809L185.868 39.9863L186.314 39.76ZM186.314 51.88L185.867 51.6564L185.865 51.6592L186.314 51.88ZM182.794 55.92L183.059 56.344L183.064 56.3406L182.794 55.92ZM173.674 56.4L173.434 56.839L173.442 56.8431L173.674 56.4ZM170.914 53.88L171.335 53.6102L170.414 52.1735V53.88H170.914ZM170.914 57V57.5H171.414V57H170.914ZM164.074 57H163.574V57.5H164.074V57ZM164.074 27.4V26.9H163.574V27.4H164.074ZM170.914 27.4H171.414V26.9H170.914V27.4ZM179.234 41.8L178.87 42.1437L178.88 42.1536L179.234 41.8ZM172.274 41.8L171.915 41.4513L171.911 41.4564L172.274 41.8ZM172.274 49.88L171.91 50.2236L171.915 50.2287L172.274 49.88ZM179.234 49.88L179.592 50.2287L179.597 50.2239L179.234 49.88ZM171.34 38.102C171.928 37.1459 172.778 36.3643 173.909 35.7612L173.438 34.8788C172.169 35.5557 171.18 36.4541 170.488 37.5779L171.34 38.102ZM173.909 35.7612C175.027 35.1648 176.318 34.86 177.794 34.86V33.86C176.176 33.86 174.72 34.1952 173.438 34.8788L173.909 35.7612ZM177.794 34.86C179.544 34.86 181.119 35.3026 182.529 36.184L183.059 35.336C181.482 34.3507 179.723 33.86 177.794 33.86V34.86ZM182.529 36.184C183.936 37.0633 185.049 38.3226 185.865 39.9808L186.762 39.5392C185.872 37.7307 184.639 36.3234 183.059 35.336L182.529 36.184ZM185.868 39.9863C186.706 41.638 187.134 43.5712 187.134 45.8H188.134C188.134 43.4421 187.681 41.3487 186.76 39.5337L185.868 39.9863ZM187.134 45.8C187.134 48.0285 186.707 49.9764 185.867 51.6564L186.761 52.1036C187.681 50.2636 188.134 48.1581 188.134 45.8H187.134ZM185.865 51.6592C185.048 53.3184 183.934 54.5929 182.523 55.4994L183.064 56.3406C184.641 55.3271 185.873 53.9083 186.762 52.1008L185.865 51.6592ZM182.529 55.496C181.119 56.3774 179.544 56.82 177.794 56.82V57.82C179.723 57.82 181.482 57.3293 183.059 56.344L182.529 55.496ZM177.794 56.82C176.286 56.82 174.995 56.5264 173.905 55.9569L173.442 56.8431C174.699 57.5002 176.155 57.82 177.794 57.82V56.82ZM173.913 55.9611C172.807 55.3579 171.952 54.5737 171.335 53.6102L170.493 54.1498C171.208 55.2663 172.193 56.1621 173.434 56.8389L173.913 55.9611ZM170.414 53.88V57H171.414V53.88H170.414ZM170.914 56.5H164.074V57.5H170.914V56.5ZM164.574 57V27.4H163.574V57H164.574ZM164.074 27.9H170.914V26.9H164.074V27.9ZM170.414 27.4V37.84H171.414V27.4H170.414ZM181.174 45.8C181.174 43.9967 180.664 42.5229 179.587 41.4464L178.88 42.1536C179.724 42.9971 180.174 44.19 180.174 45.8H181.174ZM179.597 41.4564C178.567 40.3676 177.275 39.82 175.754 39.82V40.82C177.006 40.82 178.034 41.2591 178.871 42.1436L179.597 41.4564ZM175.754 39.82C174.257 39.82 172.968 40.3692 171.915 41.4513L172.632 42.1487C173.499 41.2574 174.531 40.82 175.754 40.82V39.82ZM171.911 41.4564C170.868 42.5581 170.374 44.0398 170.374 45.84H171.374C171.374 44.2268 171.813 43.0152 172.637 42.1436L171.911 41.4564ZM170.374 45.84C170.374 47.6402 170.868 49.1219 171.911 50.2236L172.637 49.5364C171.813 48.6648 171.374 47.4531 171.374 45.84H170.374ZM171.915 50.2287C172.968 51.3108 174.257 51.86 175.754 51.86V50.86C174.531 50.86 173.499 50.4226 172.632 49.5313L171.915 50.2287ZM175.754 51.86C177.251 51.86 178.539 51.3108 179.592 50.2287L178.875 49.5313C178.008 50.4226 176.977 50.86 175.754 50.86V51.86ZM179.597 50.2239C180.663 49.0979 181.174 47.6045 181.174 45.8H180.174C180.174 47.4088 179.724 48.6354 178.871 49.5361L179.597 50.2239ZM232.019 28.92H232.519V28.42H232.019V28.92ZM232.019 57V57.5H232.519V57H232.019ZM225.179 57H224.679V57.5H225.179V57ZM225.179 45.44H225.679V44.94H225.179V45.44ZM214.539 45.44V44.94H214.039V45.44H214.539ZM214.539 57V57.5H215.039V57H214.539ZM207.699 57H207.199V57.5H207.699V57ZM207.699 28.92V28.42H207.199V28.92H207.699ZM214.539 28.92H215.039V28.42H214.539V28.92ZM214.539 39.92H214.039V40.42H214.539V39.92ZM225.179 39.92V40.42H225.679V39.92H225.179ZM225.179 28.92V28.42H224.679V28.92H225.179ZM231.519 28.92V57H232.519V28.92H231.519ZM232.019 56.5H225.179V57.5H232.019V56.5ZM225.679 57V45.44H224.679V57H225.679ZM225.179 44.94H214.539V45.94H225.179V44.94ZM214.039 45.44V57H215.039V45.44H214.039ZM214.539 56.5H207.699V57.5H214.539V56.5ZM208.199 57V28.92H207.199V57H208.199ZM207.699 29.42H214.539V28.42H207.699V29.42ZM214.039 28.92V39.92H215.039V28.92H214.039ZM214.539 40.42H225.179V39.42H214.539V40.42ZM225.679 39.92V28.92H224.679V39.92H225.679ZM225.179 29.42H232.019V28.42H225.179V29.42ZM245.197 55.92L244.96 56.3602L244.962 56.3617L245.197 55.92ZM241.077 51.92L240.642 52.1674L240.645 52.1723L241.077 51.92ZM241.117 39.8L241.548 40.0524L241.55 40.0495L241.117 39.8ZM245.277 35.76L245.511 36.2017L245.511 36.2017L245.277 35.76ZM257.117 35.76L256.882 36.2017L256.882 36.2017L257.117 35.76ZM261.277 39.8L260.843 40.0495L260.845 40.0523L261.277 39.8ZM261.237 51.92L260.806 51.6656L260.805 51.6677L261.237 51.92ZM257.037 55.92L256.805 55.4768L256.802 55.4783L257.037 55.92ZM254.437 49.96L254.078 49.6114L254.073 49.6167L254.437 49.96ZM254.477 41.72L254.108 42.0579L254.113 42.0633L254.477 41.72ZM247.877 41.72L248.24 42.063L248.245 42.0579L247.877 41.72ZM247.837 49.96L247.463 50.2922L247.468 50.2979L247.837 49.96ZM251.117 56.82C249.003 56.82 247.112 56.3697 245.431 55.4783L244.962 56.3617C246.801 57.337 248.856 57.82 251.117 57.82V56.82ZM245.434 55.4798C243.783 54.5909 242.476 53.3233 241.508 51.6677L240.645 52.1723C241.704 53.9833 243.144 55.3824 244.96 56.3602L245.434 55.4798ZM241.511 51.6727C240.574 50.0262 240.097 48.0876 240.097 45.84H239.097C239.097 48.2324 239.606 50.3471 240.642 52.1673L241.511 51.6727ZM240.097 45.84C240.097 43.6225 240.586 41.6988 241.548 40.0523L240.685 39.5477C239.621 41.3679 239.097 43.4708 239.097 45.84H240.097ZM241.55 40.0495C242.517 38.3693 243.836 37.0901 245.511 36.2017L245.042 35.3183C243.198 36.2966 241.743 37.7107 240.683 39.5505L241.55 40.0495ZM245.511 36.2017C247.192 35.3103 249.083 34.86 251.197 34.86V33.86C248.936 33.86 246.881 34.343 245.042 35.3183L245.511 36.2017ZM251.197 34.86C253.31 34.86 255.201 35.3103 256.882 36.2017L257.351 35.3183C255.512 34.343 253.457 33.86 251.197 33.86V34.86ZM256.882 36.2017C258.558 37.0901 259.876 38.3693 260.843 40.0495L261.71 39.5505C260.651 37.7107 259.196 36.2966 257.351 35.3183L256.882 36.2017ZM260.845 40.0523C261.807 41.6988 262.297 43.6225 262.297 45.84H263.297C263.297 43.4708 262.772 41.3679 261.708 39.5477L260.845 40.0523ZM262.297 45.84C262.297 48.055 261.795 49.9917 260.806 51.6656L261.667 52.1744C262.758 50.3283 263.297 48.2117 263.297 45.84H262.297ZM260.805 51.6677C259.839 53.3195 258.509 54.5868 256.805 55.4768L257.268 56.3632C259.138 55.3865 260.607 53.9872 261.668 52.1723L260.805 51.6677ZM256.802 55.4783C255.121 56.3697 253.23 56.82 251.117 56.82V57.82C253.377 57.82 255.432 57.337 257.271 56.3617L256.802 55.4783ZM251.117 51.9C252.562 51.9 253.8 51.3621 254.8 50.3033L254.073 49.6167C253.26 50.4779 252.284 50.9 251.117 50.9V51.9ZM254.795 50.3085C255.846 49.2274 256.337 47.7121 256.337 45.84H255.337C255.337 47.5413 254.894 48.7726 254.078 49.6115L254.795 50.3085ZM256.337 45.84C256.337 43.9716 255.862 42.4582 254.84 41.3767L254.113 42.0633C254.905 42.9018 255.337 44.1351 255.337 45.84H256.337ZM254.845 41.3821C253.87 40.3184 252.643 39.78 251.197 39.78V40.78C252.364 40.78 253.323 41.2016 254.108 42.0579L254.845 41.3821ZM251.197 39.78C249.727 39.78 248.485 40.3161 247.508 41.3821L248.245 42.0579C249.028 41.2039 250 40.78 251.197 40.78V39.78ZM247.513 41.377C246.515 42.4355 246.057 43.952 246.057 45.84H247.057C247.057 44.1013 247.478 42.8712 248.24 42.063L247.513 41.377ZM246.057 45.84C246.057 47.7012 246.501 49.2103 247.463 50.2922L248.21 49.6278C247.465 48.7897 247.057 47.5521 247.057 45.84H246.057ZM247.468 50.2979C248.443 51.3616 249.67 51.9 251.117 51.9V50.9C249.95 50.9 248.99 50.4784 248.205 49.6221L247.468 50.2979ZM277.265 37.84H276.765V39.5465L277.686 38.1098L277.265 37.84ZM280.025 35.32L279.786 34.881L279.786 34.8811L280.025 35.32ZM289.145 35.76L288.88 36.184L288.88 36.184L289.145 35.76ZM292.665 39.76L292.217 39.9809L292.219 39.9863L292.665 39.76ZM292.665 51.88L292.218 51.6564L292.217 51.6592L292.665 51.88ZM289.145 55.92L289.41 56.344L289.416 56.3406L289.145 55.92ZM280.025 56.36L279.786 56.799L279.79 56.8012L280.025 56.36ZM277.265 53.88L277.683 53.6052L276.765 52.2103V53.88H277.265ZM277.265 67.64V68.14H277.765V67.64H277.265ZM270.425 67.64H269.925V68.14H270.425V67.64ZM270.425 34.68V34.18H269.925V34.68H270.425ZM277.265 34.68H277.765V34.18H277.265V34.68ZM285.585 41.8L285.222 42.1437L285.232 42.1536L285.585 41.8ZM278.625 41.8L278.267 41.4513L278.262 41.4564L278.625 41.8ZM278.625 49.88L278.262 50.2236L278.267 50.2287L278.625 49.88ZM285.585 49.88L285.944 50.2287L285.948 50.2239L285.585 49.88ZM277.686 38.1098C278.304 37.1463 279.159 36.3621 280.265 35.7589L279.786 34.8811C278.545 35.5579 277.56 36.4537 276.844 37.5702L277.686 38.1098ZM280.265 35.7589C281.353 35.1656 282.641 34.86 284.145 34.86V33.86C282.503 33.86 281.045 34.1944 279.786 34.881L280.265 35.7589ZM284.145 34.86C285.896 34.86 287.47 35.3026 288.88 36.184L289.41 35.336C287.834 34.3507 286.075 33.86 284.145 33.86V34.86ZM288.88 36.184C290.287 37.0633 291.4 38.3226 292.217 39.9808L293.114 39.5392C292.224 37.7307 290.99 36.3234 289.41 35.336L288.88 36.184ZM292.219 39.9863C293.058 41.638 293.485 43.5712 293.485 45.8H294.485C294.485 43.4421 294.033 41.3487 293.111 39.5337L292.219 39.9863ZM293.485 45.8C293.485 48.0285 293.058 49.9764 292.218 51.6564L293.113 52.1036C294.033 50.2636 294.485 48.1581 294.485 45.8H293.485ZM292.217 51.6592C291.4 53.3184 290.285 54.5929 288.875 55.4994L289.416 56.3406C290.992 55.3271 292.224 53.9083 293.114 52.1008L292.217 51.6592ZM288.88 55.496C287.47 56.3774 285.896 56.82 284.145 56.82V57.82C286.075 57.82 287.834 57.3293 289.41 56.344L288.88 55.496ZM284.145 56.82C282.669 56.82 281.379 56.5152 280.261 55.9188L279.79 56.8012C281.072 57.4848 282.528 57.82 284.145 57.82V56.82ZM280.265 55.9211C279.156 55.3162 278.3 54.5432 277.683 53.6052L276.848 54.1548C277.564 55.2434 278.548 56.1238 279.786 56.7989L280.265 55.9211ZM276.765 53.88V67.64H277.765V53.88H276.765ZM277.265 67.14H270.425V68.14H277.265V67.14ZM270.925 67.64V34.68H269.925V67.64H270.925ZM270.425 35.18H277.265V34.18H270.425V35.18ZM276.765 34.68V37.84H277.765V34.68H276.765ZM287.525 45.8C287.525 43.9967 287.015 42.5229 285.939 41.4464L285.232 42.1536C286.075 42.9971 286.525 44.19 286.525 45.8H287.525ZM285.949 41.4564C284.919 40.3676 283.626 39.82 282.105 39.82V40.82C283.358 40.82 284.385 41.2591 285.222 42.1436L285.949 41.4564ZM282.105 39.82C280.608 39.82 279.32 40.3692 278.267 41.4513L278.984 42.1487C279.851 41.2574 280.882 40.82 282.105 40.82V39.82ZM278.262 41.4564C277.22 42.5581 276.725 44.0398 276.725 45.84H277.725C277.725 44.2268 278.164 43.0152 278.989 42.1436L278.262 41.4564ZM276.725 45.84C276.725 47.6402 277.22 49.1219 278.262 50.2236L278.989 49.5364C278.164 48.6648 277.725 47.4531 277.725 45.84H276.725ZM278.267 50.2287C279.32 51.3108 280.608 51.86 282.105 51.86V50.86C280.882 50.86 279.851 50.4226 278.984 49.5313L278.267 50.2287ZM282.105 51.86C283.602 51.86 284.891 51.3108 285.944 50.2287L285.227 49.5313C284.36 50.4226 283.328 50.86 282.105 50.86V51.86ZM285.948 50.2239C287.015 49.0979 287.525 47.6045 287.525 45.8H286.525C286.525 47.4088 286.076 48.6354 285.222 49.5361L285.948 50.2239ZM308.414 37.84H307.914V39.5465L308.835 38.1098L308.414 37.84ZM311.174 35.32L310.934 34.881L310.934 34.8811L311.174 35.32ZM320.294 35.76L320.029 36.184L320.029 36.184L320.294 35.76ZM323.814 39.76L323.365 39.9809L323.368 39.9863L323.814 39.76ZM323.814 51.88L323.367 51.6564L323.365 51.6592L323.814 51.88ZM320.294 55.92L320.559 56.344L320.564 56.3406L320.294 55.92ZM311.174 56.36L310.934 56.799L310.938 56.8012L311.174 56.36ZM308.414 53.88L308.831 53.6052L307.914 52.2103V53.88H308.414ZM308.414 67.64V68.14H308.914V67.64H308.414ZM301.574 67.64H301.074V68.14H301.574V67.64ZM301.574 34.68V34.18H301.074V34.68H301.574ZM308.414 34.68H308.914V34.18H308.414V34.68ZM316.734 41.8L316.37 42.1437L316.38 42.1536L316.734 41.8ZM309.774 41.8L309.415 41.4513L309.411 41.4564L309.774 41.8ZM309.774 49.88L309.41 50.2236L309.415 50.2287L309.774 49.88ZM316.734 49.88L317.092 50.2287L317.097 50.2239L316.734 49.88ZM308.835 38.1098C309.452 37.1463 310.307 36.3621 311.413 35.7589L310.934 34.8811C309.693 35.5579 308.708 36.4537 307.993 37.5702L308.835 38.1098ZM311.413 35.7589C312.501 35.1656 313.789 34.86 315.294 34.86V33.86C313.652 33.86 312.193 34.1944 310.934 34.881L311.413 35.7589ZM315.294 34.86C317.044 34.86 318.619 35.3026 320.029 36.184L320.559 35.336C318.982 34.3507 317.223 33.86 315.294 33.86V34.86ZM320.029 36.184C321.436 37.0633 322.549 38.3226 323.365 39.9808L324.262 39.5392C323.372 37.7307 322.139 36.3234 320.559 35.336L320.029 36.184ZM323.368 39.9863C324.206 41.638 324.634 43.5712 324.634 45.8H325.634C325.634 43.4421 325.181 41.3487 324.26 39.5337L323.368 39.9863ZM324.634 45.8C324.634 48.0285 324.207 49.9764 323.367 51.6564L324.261 52.1036C325.181 50.2636 325.634 48.1581 325.634 45.8H324.634ZM323.365 51.6592C322.548 53.3184 321.434 54.5929 320.023 55.4994L320.564 56.3406C322.141 55.3271 323.373 53.9083 324.262 52.1008L323.365 51.6592ZM320.029 55.496C318.619 56.3774 317.044 56.82 315.294 56.82V57.82C317.223 57.82 318.982 57.3293 320.559 56.344L320.029 55.496ZM315.294 56.82C313.818 56.82 312.527 56.5152 311.409 55.9188L310.938 56.8012C312.22 57.4848 313.676 57.82 315.294 57.82V56.82ZM311.413 55.9211C310.304 55.3162 309.449 54.5432 308.831 53.6052L307.996 54.1548C308.712 55.2434 309.696 56.1238 310.934 56.7989L311.413 55.9211ZM307.914 53.88V67.64H308.914V53.88H307.914ZM308.414 67.14H301.574V68.14H308.414V67.14ZM302.074 67.64V34.68H301.074V67.64H302.074ZM301.574 35.18H308.414V34.18H301.574V35.18ZM307.914 34.68V37.84H308.914V34.68H307.914ZM318.674 45.8C318.674 43.9967 318.164 42.5229 317.087 41.4464L316.38 42.1536C317.224 42.9971 317.674 44.19 317.674 45.8H318.674ZM317.097 41.4564C316.067 40.3676 314.775 39.82 313.254 39.82V40.82C314.506 40.82 315.534 41.2591 316.371 42.1436L317.097 41.4564ZM313.254 39.82C311.757 39.82 310.468 40.3692 309.415 41.4513L310.132 42.1487C310.999 41.2574 312.031 40.82 313.254 40.82V39.82ZM309.411 41.4564C308.368 42.5581 307.874 44.0398 307.874 45.84H308.874C308.874 44.2268 309.313 43.0152 310.137 42.1436L309.411 41.4564ZM307.874 45.84C307.874 47.6402 308.368 49.1219 309.411 50.2236L310.137 49.5364C309.313 48.6648 308.874 47.4531 308.874 45.84H307.874ZM309.415 50.2287C310.468 51.3108 311.757 51.86 313.254 51.86V50.86C312.031 50.86 310.999 50.4226 310.132 49.5313L309.415 50.2287ZM313.254 51.86C314.751 51.86 316.039 51.3108 317.092 50.2287L316.375 49.5313C315.508 50.4226 314.477 50.86 313.254 50.86V51.86ZM317.097 50.2239C318.163 49.0979 318.674 47.6045 318.674 45.8H317.674C317.674 47.4088 317.224 48.6354 316.371 49.5361L317.097 50.2239ZM353.642 47.48V47.98H354.088L354.139 47.5373L353.642 47.48ZM338.162 47.48V46.98H337.622L337.664 47.5183L338.162 47.48ZM339.482 50.68L339.135 51.0397L339.141 51.0458L339.148 51.0516L339.482 50.68ZM345.962 49.6V49.1H345.643L345.508 49.3899L345.962 49.6ZM353.242 49.6L353.727 49.7233L353.885 49.1H353.242V49.6ZM351.202 53.56L350.819 53.2382L350.815 53.2434L351.202 53.56ZM347.562 56.32L347.769 56.7752L347.562 56.32ZM336.802 55.92L336.562 56.3587L336.562 56.3587L336.802 55.92ZM332.802 51.92L333.24 51.6777L333.24 51.6777L332.802 51.92ZM332.762 39.76L332.325 39.5177L332.322 39.5229L332.762 39.76ZM336.762 35.76L337.002 36.1987L337.002 36.1987L336.762 35.76ZM348.402 35.72L348.165 36.16L348.165 36.16L348.402 35.72ZM352.322 39.6L351.885 39.8428L351.888 39.8481L352.322 39.6ZM346.762 43.68V44.18H347.262V43.68H346.762ZM345.562 40.88L345.89 40.5022L345.89 40.5022L345.562 40.88ZM339.642 40.84L339.322 40.4558L339.316 40.4613L339.642 40.84ZM338.202 43.68L337.708 43.6048L337.62 44.18H338.202V43.68ZM353.262 45.48C353.262 46.0992 353.223 46.7467 353.145 47.4227L354.139 47.5373C354.221 46.8266 354.262 46.1408 354.262 45.48H353.262ZM353.642 46.98H338.162V47.98H353.642V46.98ZM337.664 47.5183C337.777 48.9903 338.25 50.1855 339.135 51.0397L339.829 50.3203C339.168 49.6812 338.761 48.7431 338.661 47.4417L337.664 47.5183ZM339.148 51.0516C340.046 51.86 341.141 52.26 342.402 52.26V51.26C341.37 51.26 340.519 50.94 339.817 50.3084L339.148 51.0516ZM342.402 52.26C343.326 52.26 344.144 52.0647 344.832 51.6475C345.522 51.2288 346.047 50.6069 346.416 49.8101L345.508 49.3899C345.211 50.0331 344.809 50.4912 344.313 50.7925C343.814 51.0953 343.185 51.26 342.402 51.26V52.26ZM345.962 50.1H353.242V49.1H345.962V50.1ZM352.758 49.4767C352.403 50.8694 351.758 52.1217 350.82 53.2382L351.585 53.8818C352.619 52.6516 353.335 51.264 353.727 49.7233L352.758 49.4767ZM350.815 53.2434C349.907 54.3536 348.757 55.2279 347.355 55.8648L347.769 56.7752C349.301 56.0788 350.578 55.113 351.589 53.8766L350.815 53.2434ZM347.355 55.8648C345.961 56.4984 344.393 56.82 342.642 56.82V57.82C344.518 57.82 346.23 57.4749 347.769 56.7752L347.355 55.8648ZM342.642 56.82C340.529 56.82 338.666 56.3696 337.042 55.4813L336.562 56.3587C338.351 57.337 340.382 57.82 342.642 57.82V56.82ZM337.042 55.4813C335.42 54.5943 334.155 53.3299 333.24 51.6777L332.365 52.1622C333.37 53.9768 334.771 55.379 336.562 56.3587L337.042 55.4813ZM333.24 51.6777C332.327 50.0303 331.862 48.0898 331.862 45.84H330.862C330.862 48.2302 331.357 50.343 332.365 52.1622L333.24 51.6777ZM331.862 45.84C331.862 43.588 332.315 41.6455 333.202 39.997L332.322 39.5229C331.343 41.3411 330.862 43.452 330.862 45.84H331.862ZM333.2 40.0022C334.115 38.3501 335.38 37.0857 337.002 36.1987L336.522 35.3213C334.731 36.301 333.33 37.7032 332.325 39.5177L333.2 40.0022ZM337.002 36.1987C338.626 35.3108 340.501 34.86 342.642 34.86V33.86C340.357 33.86 338.312 34.3425 336.522 35.3213L337.002 36.1987ZM342.642 34.86C344.73 34.86 346.567 35.2976 348.165 36.16L348.64 35.28C346.878 34.329 344.874 33.86 342.642 33.86V34.86ZM348.165 36.16C349.76 37.021 350.998 38.2457 351.885 39.8428L352.759 39.3572C351.78 37.5943 350.404 36.2323 348.64 35.28L348.165 36.16ZM351.888 39.8481C352.798 41.4413 353.262 43.3131 353.262 45.48H354.262C354.262 43.1669 353.766 41.1187 352.756 39.3519L351.888 39.8481ZM347.262 43.68C347.262 42.3793 346.812 41.3014 345.89 40.5022L345.235 41.2578C345.912 41.8452 346.262 42.634 346.262 43.68H347.262ZM345.89 40.5022C344.987 39.7195 343.865 39.34 342.562 39.34V40.34C343.659 40.34 344.538 40.6538 345.235 41.2578L345.89 40.5022ZM342.562 39.34C341.311 39.34 340.221 39.7066 339.322 40.4559L339.962 41.2241C340.663 40.64 341.52 40.34 342.562 40.34V39.34ZM339.316 40.4613C338.434 41.2217 337.908 42.2866 337.708 43.6048L338.696 43.7552C338.869 42.62 339.304 41.7916 339.969 41.2187L339.316 40.4613ZM338.202 44.18H346.762V43.18H338.202V44.18ZM368.211 38.4H367.711V40.082L368.629 38.6731L368.211 38.4ZM371.211 35.52L371.461 35.953L371.468 35.9487L371.211 35.52ZM375.211 34.44H375.711V33.94H375.211V34.44ZM375.211 41.68V42.18H375.711V41.68H375.211ZM369.491 42.8L369.813 43.1822L369.82 43.1763L369.491 42.8ZM368.211 57V57.5H368.711V57H368.211ZM361.371 57H360.871V57.5H361.371V57ZM361.371 34.68V34.18H360.871V34.68H361.371ZM368.211 34.68H368.711V34.18H368.211V34.68ZM368.629 38.6731C369.389 37.5084 370.333 36.6048 371.461 35.9529L370.96 35.0871C369.689 35.8219 368.632 36.8383 367.792 38.1269L368.629 38.6731ZM371.468 35.9487C372.586 35.2777 373.83 34.94 375.211 34.94V33.94C373.658 33.94 372.235 34.3223 370.953 35.0913L371.468 35.9487ZM374.711 34.44V41.68H375.711V34.44H374.711ZM375.211 41.18H373.331V42.18H375.211V41.18ZM373.331 41.18C371.562 41.18 370.142 41.5654 369.161 42.4237L369.82 43.1763C370.546 42.5412 371.686 42.18 373.331 42.18V41.18ZM369.168 42.4179C368.147 43.2799 367.711 44.7459 367.711 46.64H368.711C368.711 44.8541 369.128 43.7601 369.813 43.1821L369.168 42.4179ZM367.711 46.64V57H368.711V46.64H367.711ZM368.211 56.5H361.371V57.5H368.211V56.5ZM361.871 57V34.68H360.871V57H361.871ZM361.371 35.18H368.211V34.18H361.371V35.18ZM367.711 34.68V38.4H368.711V34.68H367.711Z" fill="#16A34A"/>
<rect x="0.5" y="0.5" width="79" height="79" rx="9.5" fill="#16A34A" stroke="#16A34A"/>
<path d="M43.043 44.2695V24.5625H48.8828V44.2695C48.8828 46.1706 48.4661 47.8047 47.6328 49.1719C46.7995 50.526 45.6602 51.5677 44.2148 52.2969C42.7826 53.026 41.168 53.3906 39.3711 53.3906C37.5091 53.3906 35.862 53.0781 34.4297 52.4531C32.9974 51.8281 31.8711 50.8711 31.0508 49.582C30.2305 48.2799 29.8203 46.6328 29.8203 44.6406H35.6992C35.6992 45.6823 35.8424 46.5091 36.1289 47.1211C36.4284 47.7331 36.8516 48.1693 37.3984 48.4297C37.9453 48.6901 38.6029 48.8203 39.3711 48.8203C40.1133 48.8203 40.7578 48.6445 41.3047 48.293C41.8516 47.9414 42.2747 47.4271 42.5742 46.75C42.8867 46.0729 43.043 45.2461 43.043 44.2695Z" fill="white"/>
</svg>
